HIERARCHY
ROOT Hips
{
	OFFSET 0.000000 35.082581 0.000000
	CHANNELS 6 Xposition Yposition Zposition Xrotation Yrotation Zrotation 
	JOINT Spine
	{
		OFFSET 0.000000 6.876099 0.125700
		CHANNELS 3 Xrotation Yrotation Zrotation
		JOINT Spine1
		{
			OFFSET 0.000000 5.730043 0.104720
			CHANNELS 3 Xrotation Yrotation Zrotation
			JOINT Spine1_split
			{
				OFFSET 0.000000 5.730043 0.104720
				CHANNELS 3 Xrotation Yrotation Zrotation
				JOINT Spine2
				{
					OFFSET 0.000000 5.730043 0.104720
					CHANNELS 3 Xrotation Yrotation Zrotation
					JOINT Neck
					{
						OFFSET 0.000000 10.314075 0.188496
						CHANNELS 3 Xrotation Yrotation Zrotation
						JOINT Head
						{
							OFFSET 0.000000 7.643700 -2.377400
							CHANNELS 3 Xrotation Yrotation Zrotation
							JOINT HeadTop_End
							{
								OFFSET 0.000000 43.788605 -13.619600
								CHANNELS 3 Xrotation Yrotation Zrotation
								End Site
								{
									OFFSET 0.000000 0.000000 0.000000
								}
							}
						}
					}
					JOINT LeftShoulder
					{
						OFFSET 2.196100 4.412489 0.087492
						CHANNELS 3 Xrotation Yrotation Zrotation
						JOINT LeftShoulder_split
						{
							OFFSET 2.196100 4.412489 0.087492
							CHANNELS 3 Xrotation Yrotation Zrotation
							JOINT LeftArm
							{
								OFFSET 8.771219 -2.981674 -0.026999
								CHANNELS 3 Xrotation Yrotation Zrotation
								JOINT LeftForeArm
								{
									OFFSET 8.512804 0.000000 -0.000000
									CHANNELS 3 Xrotation Yrotation Zrotation
									JOINT LeftHand
									{
										OFFSET 18.484802 0.000000 -0.000000
										CHANNELS 3 Xrotation Yrotation Zrotation
										JOINT LeftHandThumb1
										{
											OFFSET 2.499420 -1.158070 2.653252
											CHANNELS 3 Xrotation Yrotation Zrotation
											JOINT LeftHandThumb2
											{
												OFFSET 2.370079 -1.368366 1.368366
												CHANNELS 3 Xrotation Yrotation Zrotation
												JOINT LeftHandThumb3
												{
													OFFSET 2.676727 -1.545410 1.545409
													CHANNELS 3 Xrotation Yrotation Zrotation
													JOINT LeftHandThumb4
													{
														OFFSET 1.692226 -0.977005 0.977007
														CHANNELS 3 Xrotation Yrotation Zrotation
														End Site
														{
															OFFSET 0.000000 0.000000 0.000000
														}
													}
												}
											}
										}
										JOINT LeftHandIndex1
										{
											OFFSET 7.924831 -0.457527 2.345128
											CHANNELS 3 Xrotation Yrotation Zrotation
											JOINT LeftHandIndex2
											{
												OFFSET 3.643303 0.000000 0.000000
												CHANNELS 3 Xrotation Yrotation Zrotation
												JOINT LeftHandIndex3
												{
													OFFSET 3.810799 0.000000 0.000000
													CHANNELS 3 Xrotation Yrotation Zrotation
													JOINT LeftHandIndex4
													{
														OFFSET 2.403702 0.000000 0.000000
														CHANNELS 3 Xrotation Yrotation Zrotation
														End Site
														{
															OFFSET 0.000000 0.000000 0.000000
														}
													}
												}
											}
										}
										JOINT LeftHandMiddle1
										{
											OFFSET 8.563995 0.000000 -0.000000
											CHANNELS 3 Xrotation Yrotation Zrotation
											JOINT LeftHandMiddle2
											{
												OFFSET 3.861618 0.000000 0.000000
												CHANNELS 3 Xrotation Yrotation Zrotation
												JOINT LeftHandMiddle3
												{
													OFFSET 3.701603 0.000000 0.000000
													CHANNELS 3 Xrotation Yrotation Zrotation
													JOINT LeftHandMiddle4
													{
														OFFSET 2.322544 0.000000 0.000000
														CHANNELS 3 Xrotation Yrotation Zrotation
														End Site
														{
															OFFSET 0.000000 0.000000 0.000000
														}
													}
												}
											}
										}
										JOINT LeftHandRing1
										{
											OFFSET 8.426460 -0.424637 -3.286992
											CHANNELS 3 Xrotation Yrotation Zrotation
											JOINT LeftHandRing2
											{
												OFFSET 3.126408 0.000000 0.000000
												CHANNELS 3 Xrotation Yrotation Zrotation
												JOINT LeftHandRing3
												{
													OFFSET 3.085026 0.000000 0.000000
													CHANNELS 3 Xrotation Yrotation Zrotation
													JOINT LeftHandRing4
													{
														OFFSET 1.644005 0.000000 0.000000
														CHANNELS 3 Xrotation Yrotation Zrotation
														End Site
														{
															OFFSET 0.000000 0.000000 0.000000
														}
													}
												}
											}
										}
									}
								}
							}
						}
					}
					JOINT RightShoulder
					{
						OFFSET -2.196100 4.412496 0.070690
						CHANNELS 3 Xrotation Yrotation Zrotation
						JOINT RightShoulder_split
						{
							OFFSET -2.196100 4.412496 0.070690
							CHANNELS 3 Xrotation Yrotation Zrotation
							JOINT RightArm
							{
								OFFSET -8.771282 -2.981682 -0.094208
								CHANNELS 3 Xrotation Yrotation Zrotation
								JOINT RightForeArm
								{
									OFFSET -8.494598 0.000000 0.000000
									CHANNELS 3 Xrotation Yrotation Zrotation
									JOINT RightHand
									{
										OFFSET -18.483803 0.000000 0.000001
										CHANNELS 3 Xrotation Yrotation Zrotation
										JOINT RightHandThumb1
										{
											OFFSET -2.527351 -1.008072 2.575253
											CHANNELS 3 Xrotation Yrotation Zrotation
											JOINT RightHandThumb2
											{
												OFFSET -2.321518 -1.340328 1.340329
												CHANNELS 3 Xrotation Yrotation Zrotation
												JOINT RightHandThumb3
												{
													OFFSET -2.657753 -1.534454 1.534455
													CHANNELS 3 Xrotation Yrotation Zrotation
													JOINT RightHandThumb4
													{
														OFFSET -1.807510 -1.043568 1.043567
														CHANNELS 3 Xrotation Yrotation Zrotation
														End Site
														{
															OFFSET 0.000000 0.000000 0.000000
														}
													}
												}
											}
										}
										JOINT RightHandIndex1
										{
											OFFSET -8.811420 0.015533 2.887987
											CHANNELS 3 Xrotation Yrotation Zrotation
											JOINT RightHandIndex2
											{
												OFFSET -3.537502 0.000000 0.000000
												CHANNELS 3 Xrotation Yrotation Zrotation
												JOINT RightHandIndex3
												{
													OFFSET -3.356201 0.000000 0.000000
													CHANNELS 3 Xrotation Yrotation Zrotation
													JOINT RightHandIndex4
													{
														OFFSET -1.933098 0.000000 0.000000
														CHANNELS 3 Xrotation Yrotation Zrotation
														End Site
														{
															OFFSET 0.000000 0.000000 0.000000
														}
													}
												}
											}
										}
										JOINT RightHandMiddle1
										{
											OFFSET -8.178135 0.000000 0.000000
											CHANNELS 3 Xrotation Yrotation Zrotation
											JOINT RightHandMiddle2
											{
												OFFSET -3.901302 0.000000 0.000000
												CHANNELS 3 Xrotation Yrotation Zrotation
												JOINT RightHandMiddle3
												{
													OFFSET -3.909599 0.000000 0.000000
													CHANNELS 3 Xrotation Yrotation Zrotation
													JOINT RightHandMiddle4
													{
														OFFSET -2.376003 0.000000 0.000000
														CHANNELS 3 Xrotation Yrotation Zrotation
														End Site
														{
															OFFSET 0.000000 0.000000 0.000000
														}
													}
												}
											}
										}
										JOINT RightHandRing1
										{
											OFFSET -7.559013 0.014137 -2.865403
											CHANNELS 3 Xrotation Yrotation Zrotation
											JOINT RightHandRing2
											{
												OFFSET -3.449306 0.000000 0.000000
												CHANNELS 3 Xrotation Yrotation Zrotation
												JOINT RightHandRing3
												{
													OFFSET -3.362106 0.000000 0.000000
													CHANNELS 3 Xrotation Yrotation Zrotation
													JOINT RightHandRing4
													{
														OFFSET -2.076401 0.000000 0.000000
														CHANNELS 3 Xrotation Yrotation Zrotation
														End Site
														{
															OFFSET 0.000000 0.000000 0.000000
														}
													}
												}
											}
										}
									}
								}
							}
						}
					}
				}
			}
		}
	}
	JOINT LeftUpLeg
	{
		OFFSET 10.205400 -3.823500 0.155100
		CHANNELS 3 Xrotation Yrotation Zrotation
		JOINT LeftLeg
		{
			OFFSET 0.708757 -12.982077 0.567790
			CHANNELS 3 Xrotation Yrotation Zrotation
			JOINT LeftFoot
			{
				OFFSET -0.708756 -10.717838 -2.184338
				CHANNELS 3 Xrotation Yrotation Zrotation
				JOINT LeftToeBase
				{
					OFFSET 0.108149 -7.191104 7.560241
					CHANNELS 3 Xrotation Yrotation Zrotation
					JOINT LeftToe_End
					{
						OFFSET 0.070230 0.081724 4.490308
						CHANNELS 3 Xrotation Yrotation Zrotation
						End Site
						{
							OFFSET 0.000000 0.000000 0.000000
						}
					}
				}
			}
		}
	}
	JOINT RightUpLeg
	{
		OFFSET -10.205400 -3.823500 0.005500
		CHANNELS 3 Xrotation Yrotation Zrotation
		JOINT RightLeg
		{
			OFFSET -0.708756 -12.982134 0.610632
			CHANNELS 3 Xrotation Yrotation Zrotation
			JOINT RightFoot
			{
				OFFSET 0.708754 -10.717769 -1.945823
				CHANNELS 3 Xrotation Yrotation Zrotation
				JOINT RightToeBase
				{
					OFFSET -0.108140 -7.191069 7.372968
					CHANNELS 3 Xrotation Yrotation Zrotation
					JOINT RightToe_End
					{
						OFFSET -0.070227 0.081735 4.479403
						CHANNELS 3 Xrotation Yrotation Zrotation
						End Site
						{
							OFFSET 0.000000 0.000000 0.000000
						}
					}
				}
			}
		}
	}
}
MOTION
Frames: 4
Frame Time: 0.016667
1.254560 29.789337 -0.366432 -173.904649 -97.578193 -171.800568 7.194138 -5.476160 -4.589308 3.180248 -8.412490 -0.457311 0.000000 0.000000 0.000000 3.240267 -8.382684 -0.141391 -11.954773 7.249591 7.049804 90.964043 78.695070 -96.836148 0.000001 0.000000 -0.000000 4.998847 3.199376 13.148478 0.000000 0.000000 0.000000 -41.287148 14.474957 -0.764737 0.404868 -12.304738 -0.189209 -49.608186 -4.504512 -0.286662 40.109938 -15.297213 -0.360437 5.639926 28.097735 11.338742 1.088519 40.896273 22.734066 -0.000002 -0.000001 -0.000002 6.882281 2.840016 -61.140493 8.247953 7.640075 -89.897925 2.146191 8.173429 -41.827798 -0.000001 -0.000002 0.000001 -2.345536 4.688862 -62.655272 8.754187 9.897091 -87.051280 1.995377 4.929266 -37.483412 0.000002 0.000000 0.000000 -9.042488 10.045611 -60.766185 8.524038 9.508868 -66.892912 6.576533 9.896798 -70.385113 -0.000001 -0.000000 0.000002 -0.697215 3.176103 -19.419939 0.000000 0.000000 0.000000 -43.720382 41.405939 39.746206 -0.236309 135.165182 1.057691 -74.611853 -0.241682 -6.555999 0.277492 -1.521508 -1.570517 7.169023 -41.689668 -15.773514 -4.517973 11.064485 4.673964 0.000004 0.000003 0.000003 6.412847 -12.738392 14.389568 9.941760 -7.465173 101.743242 4.405014 -9.947427 61.138874 0.000001 -0.000001 0.000001 2.653216 -11.302325 44.730943 9.916110 -9.880680 94.351209 8.462617 -8.530822 83.992230 0.000002 -0.000002 -0.000001 2.140189 -7.454473 61.765032 9.609251 -8.992473 89.388707 11.175485 -10.370860 97.638162 -0.000000 0.000002 -0.000001 -23.890007 25.773481 40.448899 32.448753 -14.643415 -0.794979 -10.654018 8.785026 -26.202817 -1.333110 -0.000671 -0.000047 0.000000 -0.000000 -0.000000 -32.567329 -0.270416 -36.325746 34.206885 7.902892 -2.940883 -5.073237 5.252453 31.217605 -0.001642 -0.000387 0.000005 0.000000 -0.000000 -0.000000 
1.242474 29.789333 -0.367241 -174.009615 -97.657068 -171.885030 7.179085 -5.511798 -4.625437 3.193035 -8.441192 -0.434102 0.000000 0.000000 0.000000 3.256760 -8.414377 -0.119541 -11.939449 7.256025 7.066641 91.444943 78.685439 -97.309637 -0.000000 0.000000 0.000000 4.942456 3.372601 13.150505 0.000000 0.000000 0.000000 -41.216797 14.374464 -0.890729 0.408200 -12.293955 -0.188319 -49.593529 -4.514058 -0.289859 40.109938 -15.297214 -0.360439 5.639928 28.097740 11.338747 1.088517 40.896277 22.734070 -0.000000 -0.000003 -0.000002 6.882280 2.840015 -61.140500 8.247951 7.640079 -89.897925 2.146196 8.173429 -41.827802 0.000000 0.000001 -0.000001 -2.345535 4.688861 -62.655272 8.754188 9.897091 -87.051280 1.995381 4.929260 -37.483416 0.000003 -0.000000 -0.000002 -9.042489 10.045610 -60.766192 8.524039 9.508869 -66.892919 6.576530 9.896798 -70.385106 0.000001 0.000000 0.000003 -0.667740 3.236929 -19.377561 0.000000 0.000000 0.000000 -43.532494 41.170543 39.610972 -0.208237 135.324585 1.024166 -74.601266 -0.328487 -6.443879 0.277491 -1.521507 -1.570512 7.169031 -41.689665 -15.773516 -4.517969 11.064486 4.673968 0.000005 -0.000002 -0.000002 6.412845 -12.738392 14.389568 9.941763 -7.465174 101.743236 4.405019 -9.947432 61.138874 -0.000003 -0.000001 0.000001 2.653213 -11.302325 44.730940 9.916109 -9.880680 94.351209 8.462615 -8.530821 83.992223 -0.000001 -0.000001 0.000000 2.140189 -7.454473 61.765032 9.609251 -8.992471 89.388707 11.175488 -10.370854 97.638162 -0.000000 0.000000 -0.000001 -23.875387 25.738342 40.400900 32.410569 -14.660166 -0.796206 -10.625102 8.774130 -26.196716 -1.325663 -0.000744 -0.000029 0.000000 0.000000 -0.000000 -32.454542 -0.232457 -36.364303 34.286088 7.823206 -2.950786 -5.194753 5.192336 31.269617 -0.001640 -0.000387 0.000004 0.000000 -0.000000 0.000000 
1.230435 29.789230 -0.368064 -174.110825 -97.735274 -171.965872 7.164962 -5.545838 -4.664767 3.205280 -8.468308 -0.412652 0.000000 0.000000 0.000000 3.272588 -8.444024 -0.099791 -11.924546 7.262645 7.083637 92.002471 78.676061 -97.862582 0.000000 -0.000000 0.000000 4.890247 3.523475 13.153896 0.000000 0.000000 0.000000 -41.149827 14.283749 -0.998575 0.411571 -12.282983 -0.187459 -49.578772 -4.523362 -0.293013 40.109938 -15.297214 -0.360438 5.639924 28.097740 11.338746 1.088524 40.896273 22.734070 -0.000001 -0.000004 -0.000002 6.882280 2.840015 -61.140507 8.247950 7.640075 -89.897932 2.146197 8.173426 -41.827798 0.000002 -0.000001 -0.000003 -2.345538 4.688861 -62.655272 8.754187 9.897093 -87.051280 1.995379 4.929268 -37.483412 0.000000 0.000001 -0.000002 -9.042491 10.045613 -60.766192 8.524039 9.508868 -66.892919 6.576527 9.896799 -70.385113 0.000002 -0.000000 -0.000000 -0.637570 3.300948 -19.333469 0.000000 0.000000 0.000000 -43.321530 40.922563 39.468935 -0.182337 135.493987 0.993858 -74.580051 -0.410735 -6.329842 0.277485 -1.521506 -1.570516 7.169029 -41.689668 -15.773518 -4.517972 11.064480 4.673968 0.000002 -0.000001 -0.000001 6.412842 -12.738393 14.389571 9.941762 -7.465173 101.743236 4.405018 -9.947432 61.138874 -0.000000 -0.000000 0.000001 2.653212 -11.302324 44.730943 9.916106 -9.880680 94.351209 8.462616 -8.530822 83.992223 0.000003 0.000001 0.000002 2.140186 -7.454473 61.765032 9.609254 -8.992472 89.388707 11.175488 -10.370858 97.638162 -0.000002 -0.000003 -0.000000 -23.862082 25.704369 40.354059 32.373355 -14.678288 -0.797221 -10.596834 8.763567 -26.190340 -1.331773 -0.000692 -0.000033 0.000000 0.000006 0.000000 -32.342564 -0.194578 -36.402692 34.365127 7.741114 -2.960579 -5.315841 5.135452 31.321919 -0.001640 -0.000386 0.000004 0.000000 -0.000000 -0.000000 
1.218467 29.788971 -0.368868 -174.208237 -97.812892 -172.042999 7.151697 -5.580615 -4.703910 3.217084 -8.497971 -0.386806 0.000000 0.000000 0.000000 3.288897 -8.475694 -0.075520 -11.909492 7.269113 7.100594 92.471793 78.666950 -98.326290 -0.000000 0.000000 0.000000 4.841598 3.655644 13.158311 0.000000 0.000000 0.000000 -41.084069 14.218004 -1.098237 0.414893 -12.271932 -0.186572 -49.563746 -4.532722 -0.296222 40.109938 -15.297211 -0.360437 5.639928 28.097733 11.338742 1.088525 40.896277 22.734068 -0.000002 -0.000002 -0.000004 6.882280 2.840015 -61.140500 8.247953 7.640076 -89.897925 2.146196 8.173430 -41.827798 -0.000001 -0.000001 -0.000001 -2.345535 4.688862 -62.655272 8.754188 9.897089 -87.051273 1.995383 4.929261 -37.483412 0.000001 0.000001 -0.000002 -9.042489 10.045612 -60.766192 8.524039 9.508868 -66.892912 6.576530 9.896799 -70.385113 -0.000002 -0.000000 0.000001 -0.606758 3.367926 -19.287858 0.000000 0.000000 0.000000 -43.123342 40.674999 39.333017 -0.149033 135.647939 0.959535 -74.559779 -0.500142 -6.199213 0.277489 -1.521508 -1.570515 7.169029 -41.689672 -15.773516 -4.517975 11.064489 4.673965 0.000004 0.000002 0.000001 6.412849 -12.738392 14.389568 9.941760 -7.465176 101.743242 4.405017 -9.947429 61.138867 -0.000004 0.000000 -0.000000 2.653216 -11.302323 44.730940 9.916107 -9.880678 94.351209 8.462614 -8.530824 83.992223 -0.000000 -0.000002 -0.000001 2.140190 -7.454472 61.765032 9.609252 -8.992473 89.388701 11.175487 -10.370858 97.638162 -0.000001 0.000003 -0.000001 -23.850696 25.671218 40.307637 32.337514 -14.713138 -0.799191 -10.569714 8.768464 -26.178882 -1.321109 -0.000668 -0.000037 -0.000000 -0.000002 -0.000000 -32.231697 -0.156703 -36.441067 34.444326 7.659084 -2.970105 -5.436341 5.079434 31.374173 -0.001639 -0.000386 0.000004 0.000000 -0.000000 -0.000000 
